<mxfile host="65bd71144e">
    <diagram id="GFmCyySnn-wMeRtQqdIn" name="Page-1">
        <mxGraphModel dx="1154" dy="1154" grid="1" gridSize="10" guides="1" tooltips="1" connect="1" arrows="1" fold="1" page="1" pageScale="1" pageWidth="1200" pageHeight="1920" math="1" shadow="0">
            <root>
                <mxCell id="0"/>
                <mxCell id="1" parent="0"/>
                <mxCell id="2" value="predicting weither or not people will respond to advertising campaign&amp;nbsp;" style="whiteSpace=wrap;html=1;" parent="1" vertex="1">
                    <mxGeometry x="206" y="150" width="790" height="40" as="geometry"/>
                </mxCell>
                <mxCell id="3" value="" style="edgeStyle=none;orthogonalLoop=1;jettySize=auto;html=1;rounded=0;endArrow=open;startSize=14;endSize=14;sourcePerimeterSpacing=8;targetPerimeterSpacing=8;curved=1;" parent="1" source="2" target="4" edge="1">
                    <mxGeometry width="140" relative="1" as="geometry">
                        <mxPoint x="686" y="440" as="sourcePoint"/>
                        <mxPoint x="596" y="350" as="targetPoint"/>
                        <Array as="points"/>
                    </mxGeometry>
                </mxCell>
                <mxCell id="6" value="" style="edgeStyle=none;curved=1;rounded=0;orthogonalLoop=1;jettySize=auto;html=1;endArrow=open;startSize=14;endSize=14;sourcePerimeterSpacing=8;targetPerimeterSpacing=8;" parent="1" source="4" target="5" edge="1">
                    <mxGeometry relative="1" as="geometry"/>
                </mxCell>
                <mxCell id="4" value="clean data: age - dist - income - gender - marital status - target" style="rounded=0;whiteSpace=wrap;html=1;" parent="1" vertex="1">
                    <mxGeometry x="206" y="230" width="790" height="40" as="geometry"/>
                </mxCell>
                <mxCell id="9" value="" style="edgeStyle=none;curved=1;rounded=0;orthogonalLoop=1;jettySize=auto;html=1;fontSize=20;endArrow=open;startSize=14;endSize=14;sourcePerimeterSpacing=8;targetPerimeterSpacing=8;" parent="1" source="5" target="8" edge="1">
                    <mxGeometry relative="1" as="geometry"/>
                </mxCell>
                <mxCell id="5" value="&quot;lets see what happens if we just go straight to fitting a log reg model without verifying pre-requosite assumptions or verifying the data is well conditioned for the method" style="whiteSpace=wrap;html=1;rounded=0;" parent="1" vertex="1">
                    <mxGeometry x="205" y="320" width="790" height="40" as="geometry"/>
                </mxCell>
                <mxCell id="7" value="&lt;font style=&quot;font-size: 20px;&quot;&gt;&lt;b&gt;Logisic Regression Model underperformance diagnostic&amp;nbsp;&lt;/b&gt;&lt;/font&gt;" style="rounded=0;whiteSpace=wrap;html=1;" parent="1" vertex="1">
                    <mxGeometry x="45" y="20" width="1110" height="80" as="geometry"/>
                </mxCell>
                <mxCell id="42" value="" style="edgeStyle=none;curved=1;rounded=0;orthogonalLoop=1;jettySize=auto;html=1;endArrow=open;startSize=14;endSize=14;sourcePerimeterSpacing=8;targetPerimeterSpacing=8;" edge="1" parent="1" source="8" target="41">
                    <mxGeometry relative="1" as="geometry"/>
                </mxCell>
                <mxCell id="8" value="poor performance&amp;nbsp;" style="whiteSpace=wrap;html=1;rounded=0;" parent="1" vertex="1">
                    <mxGeometry x="200" y="420" width="800" height="40" as="geometry"/>
                </mxCell>
                <mxCell id="13" value="" style="edgeStyle=none;curved=1;rounded=0;orthogonalLoop=1;jettySize=auto;html=1;fontSize=20;endArrow=open;startSize=14;endSize=14;sourcePerimeterSpacing=8;targetPerimeterSpacing=8;" parent="1" source="10" target="12" edge="1">
                    <mxGeometry relative="1" as="geometry"/>
                </mxCell>
                <mxCell id="10" value="Why did this happen:" style="rounded=0;whiteSpace=wrap;html=1;" parent="1" vertex="1">
                    <mxGeometry x="200" y="725" width="800" height="40" as="geometry"/>
                </mxCell>
                <mxCell id="15" value="" style="edgeStyle=none;curved=1;rounded=0;orthogonalLoop=1;jettySize=auto;html=1;fontSize=20;endArrow=open;startSize=14;endSize=14;sourcePerimeterSpacing=8;targetPerimeterSpacing=8;" parent="1" source="12" target="14" edge="1">
                    <mxGeometry relative="1" as="geometry"/>
                </mxCell>
                <mxCell id="12" value="1.) weak predictors&amp;nbsp;&lt;br&gt;compaire log(ods) against posative proportion scatter by age and bar chart fill&lt;br&gt;sns seaborn chart.&amp;nbsp;" style="rounded=0;whiteSpace=wrap;html=1;" parent="1" vertex="1">
                    <mxGeometry x="201" y="810" width="800" height="60" as="geometry"/>
                </mxCell>
                <mxCell id="17" value="" style="edgeStyle=none;curved=1;rounded=0;orthogonalLoop=1;jettySize=auto;html=1;fontSize=20;endArrow=open;startSize=14;endSize=14;sourcePerimeterSpacing=8;targetPerimeterSpacing=8;" parent="1" source="14" edge="1">
                    <mxGeometry relative="1" as="geometry">
                        <mxPoint x="601" y="1012" as="targetPoint"/>
                    </mxGeometry>
                </mxCell>
                <mxCell id="14" value="2.) failure to recognize interaction terms&amp;nbsp;&lt;br&gt;interactions plot but then show that it does not improve the model very much&amp;nbsp;" style="rounded=0;whiteSpace=wrap;html=1;" parent="1" vertex="1">
                    <mxGeometry x="201" y="920" width="800" height="60" as="geometry"/>
                </mxCell>
                <mxCell id="21" value="" style="edgeStyle=none;curved=1;rounded=0;orthogonalLoop=1;jettySize=auto;html=1;fontSize=20;endArrow=open;startSize=14;endSize=14;sourcePerimeterSpacing=8;targetPerimeterSpacing=8;" parent="1" source="18" target="20" edge="1">
                    <mxGeometry relative="1" as="geometry"/>
                </mxCell>
                <mxCell id="18" value="It recognized that age was the most important predictor, the logit line to represent that is linear, were as the actual realationship between the variables is not, so log reg was doomed from the start.&amp;nbsp;" style="rounded=0;whiteSpace=wrap;html=1;" parent="1" vertex="1">
                    <mxGeometry x="200" y="1050" width="810" height="60" as="geometry"/>
                </mxCell>
                <mxCell id="20" value="" style="whiteSpace=wrap;html=1;rounded=0;" parent="1" vertex="1">
                    <mxGeometry x="195" y="1270" width="810" height="60" as="geometry"/>
                </mxCell>
                <mxCell id="22" value="1" style="text;strokeColor=none;fillColor=none;html=1;align=center;verticalAlign=middle;whiteSpace=wrap;rounded=0;fontSize=20;" parent="1" vertex="1">
                    <mxGeometry x="90" y="160" width="60" height="30" as="geometry"/>
                </mxCell>
                <mxCell id="23" value="2" style="text;strokeColor=none;fillColor=none;html=1;align=center;verticalAlign=middle;whiteSpace=wrap;rounded=0;fontSize=20;" parent="1" vertex="1">
                    <mxGeometry x="90" y="235" width="60" height="30" as="geometry"/>
                </mxCell>
                <mxCell id="24" value="3" style="text;strokeColor=none;fillColor=none;html=1;align=center;verticalAlign=middle;whiteSpace=wrap;rounded=0;fontSize=20;" parent="1" vertex="1">
                    <mxGeometry x="90" y="320" width="60" height="30" as="geometry"/>
                </mxCell>
                <mxCell id="25" value="4" style="text;strokeColor=none;fillColor=none;html=1;align=center;verticalAlign=middle;whiteSpace=wrap;rounded=0;fontSize=20;" parent="1" vertex="1">
                    <mxGeometry x="90" y="420" width="60" height="30" as="geometry"/>
                </mxCell>
                <mxCell id="26" value="5" style="text;strokeColor=none;fillColor=none;html=1;align=center;verticalAlign=middle;whiteSpace=wrap;rounded=0;fontSize=20;" parent="1" vertex="1">
                    <mxGeometry x="90" y="500" width="60" height="30" as="geometry"/>
                </mxCell>
                <mxCell id="27" value="6" style="text;strokeColor=none;fillColor=none;html=1;align=center;verticalAlign=middle;whiteSpace=wrap;rounded=0;fontSize=20;" parent="1" vertex="1">
                    <mxGeometry x="100" y="610" width="60" height="30" as="geometry"/>
                </mxCell>
                <mxCell id="28" value="7" style="text;strokeColor=none;fillColor=none;html=1;align=center;verticalAlign=middle;whiteSpace=wrap;rounded=0;fontSize=20;" parent="1" vertex="1">
                    <mxGeometry x="100" y="725" width="60" height="30" as="geometry"/>
                </mxCell>
                <mxCell id="29" value="8" style="text;strokeColor=none;fillColor=none;html=1;align=center;verticalAlign=middle;whiteSpace=wrap;rounded=0;fontSize=20;" parent="1" vertex="1">
                    <mxGeometry x="90" y="810" width="60" height="30" as="geometry"/>
                </mxCell>
                <mxCell id="30" value="9" style="text;strokeColor=none;fillColor=none;html=1;align=center;verticalAlign=middle;whiteSpace=wrap;rounded=0;fontSize=20;" parent="1" vertex="1">
                    <mxGeometry x="90" y="920" width="60" height="30" as="geometry"/>
                </mxCell>
                <mxCell id="33" value="" style="shape=stencil(rVjZbhsxDPwavxKSSOp4TtP/CBCnNprGgZP0+Pty62ht0buTFuibvR6ueQzJkTZ887K7e95uUnh5PR6+bn/s7193G/60SWn/tNse96/2acO3G755OBy3X46Ht6f70/fnuwk5ffp2+D694efJTinFySiFX+8PCtXy58nnE/5x/3SBL8Q64LOQtnV8pVJHfKWg6/gYSdNgUIRSAgbc/Z0NKnEFBkqFB4MaSdA/VNIx5ipUQczJ3tdGA3tFBgZCccxSi1RAFaa0jlmqSi2sGzBTaj5oVAe2Mo0uFSXldQNhimGsdCMGLkmlNNYhJ6rAQJl0rLTm7uSyQaOQBwOxJyCtZwdmA4ZpzUp1zBI3UmRghRv/gZUE9ZtxyRlEyoCtxTweK21kCaBwJfcGng2kN+1yS4dO5tkg9EQvG7Cnd8xwyBiZ60hv6/L3ObVs0HqIM72pAXxjEhdCHwpr+Da+HxehCeUxpwG/Xylnh4+gBC37GWYVALRrhYr3JyF/jKbi8BXhm8+nzS8wXQzfgst/RfE2T2qbmCj/zfuvxBgfR/8zMSCo5YfdlqKI4rW1GR0ebU2rr5uNhTLmTwoOn5D/4v3JcEEZ/3N1+fwA72SC4Hxy/3mechRxP7r6Rmo4XokOD/tFfX0D5k/2/ls/ovlTSNThI8JXEt+PkD+Nkrp4Bb2/+fmQuoRZlkRhnjfnghWU0EbVreI+Uf8P3uSPWzERykZjkI4BRBspAgyMAY5yNlTR1rORMHLCisAgBlOVTkFZ0AKSWpoPOmGdWcqCmBCkDa72GJv0BUQyueI2twnJDwRRHdMqqSd6TXLlsZUld124bBC7x/PsinCZmap0zaa1r59lg3g1TbXTd1n6Xv1DSVBPSPSy0WqfgEtc/AAzTYW4NB0QRpfsCBLQIad1j2cDhRrHVowj37R1wdKfNITruIBljp3UUvE+VZDXqF7KNsy+mDyZ7GiHOigG30FWiASkglFtDNoOauhUlLswmJmBtbV4pVMCPC4nf7zOuZdlER+8EskBShGr6EgjO7UpyM/V4rHmRPkJfapf4NEZMPS7gIsLEQZ9EPz8svEBKUecPR5Jo1nY/OWhN/nxqLYawSxi3zLT+wGh2Z94DY/qK1fDNHctuYKvzecfLfJ/vcD6GG8fzrdlD/vHx9Nl2+Xv/nbNHp1u5vj2Nw==);lineShape=1;" vertex="1" parent="1">
                    <mxGeometry x="1018.8757021805804" y="113.52194545826774" width="78.5542530520861" height="68.52095926937773" as="geometry"/>
                </mxCell>
                <mxCell id="34" value="" style="shape=stencil(rVjLThxBDPyavVrd7X6eSfIfSEBYhQAC8vr71GTVs2sPU1Gk3JalanbadpXtPujV6/318+0hhde3l6cvtz+ON2/3B/1wSOn4eH/7cnzDp4N+POjV3dPL7eeXp2+PN6e/n68X5PLp69P35Qk/T7wsIy6kFH6dvihDSv/zzacT/uH4eIGv0pvBV5XY9vFDklp8k1H38TFKHIbQVEIkhCQ1WUKTxggqzRJ6FE2EUKQUSyiiJEaxSXaEPk/1PmHIsFEdSQp5pYSg27T1Jp0RyozJSshSlRDGTOtKCDMM7xIUabKEViWRKGn1r9SSRPJKOUgOm1oir5SzryUUK4tSbr66oYZGqrVEyba8S5HOCGUW80qI0klplC7JEjJqKROBxhn1lZAlM0Xj31YPCPQIhIDyroagTQohtCDJEbIkcmgUgnMlhUTZLxRJ2RBSl8x+oXvFpdUW3iXAI4p9pUW0pPi6el+Cj1TiSzCVbF8J1sYEBMkXm2loluFRyxZfaSUN9AaLhwMwqy/T2c/4SJI2moTk8MzpR5eQHV45fqjDD/b+6HzWLuIswz38sDYPCyQVMTYuDxVwfLXPL9MA9/DB9VpRdl4Yic1Xmxa+l69YHD6z+FQJrpXz9ymzXM7vzxSG+kybeib1P9Q3nMJHF/U+lyWw+KsUi0/SOd7pK0olnoXzNhufwJ9fvAPBh4nFIV/V65eet/l4Bh7Pvn0+G9RQz67fR+4/Y7bec/wrqZ8Y1vOdBdy5IJst6DIVt4d3fa9ygXXfAdZp+//gdQ4Clx2GTCsDXdc6LnpYIATMudURYMKkpnv1nR5Ji6xLZlGbAyShkkNjbO1WBWiTndgERoNqo6qJ9pm2ttGVAGMhQsNGkx2h0c7Ugt9AcqSj8jKi2SgtQyAj5LnRrIRGo7SMma45RbqylOa7H2ZhNtOVzVyKYVyJPAvauw0rxn1W3nntRxcLRSYTUYY/2A7b4iz4vZXFhRXFwmYcLEXDJg71m0lpYO1ypgqFDJJpDV6imAszSRwm6WgPDR8JjIAVyP7C4IeGr6s9w4U1763kTtTwWiWJwNLvBDF484+bzQ5myHxm+D0N43limvZB6uv4sHfx4oavMdv7+2rwwz52JDatYZiyvRCmwxaitNEOnza3y3ua3XQHH5PHM8vb9HI4FDtv2AzLEAYxvODzCzdinQ2WrR6vJL/BD4PY/Ds57+q2F/hM3DF5FS83CzS/rXk8E4zOaF8+n8RHvdEBzy4e87xiuIgnc6F/vdj8Ox4fzreod8eHh9Ml7OX//a0rvjrd2OrH3w==);lineShape=1;" vertex="1" parent="1">
                    <mxGeometry x="1018.7870223251757" y="191.08110380651942" width="83.44672139701152" height="73.41404721283561" as="geometry"/>
                </mxCell>
                <mxCell id="35" value="" style="shape=stencil(lVnbct02DPya84ohwftzmv5HZmLXZ+raGcdpkr/PqqeUBUhaT96OZYAiQWB3AV3Sh68Pn77cXTR8fX15/vvu+/Xz68Ml/XFRvT493L1cX/Hrkj5e0of755e7v16evz19vv395dNiufz65/nfZYUfN78saSxOGn7eHtQiNf335M+b/eP1ydgXZ9+kxXP7IkGNfQuijdn3au2TRLJ+kxCs/brCoX2X6Nbv0se5/ZCQjH2Pc4UT+16sfaLxiVguW4cmmomDSrQn7kMac0iS7ZaGzifHDlm63dIoosyh+KCOKIMdGrdgs6LzW9Agwx26yFDigKi7e1MZJEpaJbt7CBLZlsYu85oUktlpjcnqkGeyHDvg3/YMTSWQsCaE1TrUPq/yuJijlO6rv5A35CTJ3nRN0gNxqD6XapBELi53DzAFT8gZyrre6lClkTcUBNGeoWQapZJ88mGJ3okDINS9IdB6KM2jMMLAUKwMX3EIdCPZiqh3e4acKWpUlWJzKeu8mWOHLNHmUg6SST0g1Zo9NPJX2RsQJbulVCeOHDt0GRb5UqKoAW76v4JXh0ijhIJUewbAQiH0iZIPdku63v2xQ/EXB4pMpOIWFHJbQtEyBh2i9uI0SiZbApJmm3zA88Acsi8gMAZ1AKtb1ADrMQYCfQx7cUMqsR/BB6lN+D+218nJa0XPGBzbQyZZUIq0nmE/3IElEIQBIVcbUV5rA+ymzj6SJBq7UguT7Y7tUbm79Zmq2pFnoKoT9u6+Ii0C2A+7f6VIsdjbGkj8vJBcDlkohcDe5U+mWgHxdPlTqArGfXnGoaiCfHD7Rz6z85ZJeJv9sHjuFGGm5IH8r9nHk8Vn17ak2Wec2Tt1p1N2n9k3iyeRqhac1+miwPGnetX/Tr0030a9U4/N53+ggIt8a37/FN+Gx5M4RdWZvWuL4tS2xw1CCB4gVBovSNc3Jl5gv2uPArMF0KZ0PgXoHSHxAnC6AI1hZQcGIzlOTbSbAOW5FIqV1iRIuNh+JeIMBIRA804X4NJYV7e00jZI6MISk1tIOydVOq0biCGX1ymIMn1WJ++uDkpFadshC9q2zDSm+o4IKpalUotzYLLRyY2coY5ZKhslPkh1Qic7uYU+j80gKq7JbikXqp/QHLjyyY13Ezp3vDoM3uDEea8rQ3HJhRYq79pAxiFo0lxJo9FkoIo2sDuHTlUXNuD79zDHT2etrLsHhGEQECirzNr0743gHvpQJ92XCQHJ1iURLJAhHVmU8jrT2Ew56Byley5Bj8Qa/lR2Dp07QEzYsAKpEsmltGsnOm80wR6uM+11KqBjh+JBoA8aJUBvthcHxqCUC3C3/PAm+o4d2oTe1aFTEQmCciJ7Q/MnMmB2fZtXNLKnPlXX5gyDwb2XYQgSRZndfqCT6PTbtdYgVXYJ2RdP55PXNKcTmyknK2fdpV2guK2+EECoTAJEr2JAj2yeGHyb2ThTrSp2M+BkCbRTkZWPjYOf9lfeFwU/8wLRsUFf8JwDe9a3Bz8BXqZsNP4u3yrvS6MfwcG+kvpSP2td7El+7rROTXSelg7WZ3y2y3/ER0n+ZJ/PizCh9m68h3yItH5/92vae/b48fbp7v76+Hj78rf9v//Uh0e3z4Tp4y8=);lineShape=1;" vertex="1" parent="1">
                    <mxGeometry x="1014.7956496327743" y="257.6848475312713" width="100.3592775679781" height="103.86211034003145" as="geometry"/>
                </mxCell>
                <mxCell id="36" value="" style="shape=stencil(lVjZctswDPwav2J4guRzmv5HZuI0nrp2xkmvvy9UD2Vxba0nb46yEEEci4U28eH99eltuwnu/eN0/L79vXv+eN3EL5sQdofX7Wn3Yb828XETH16Op+230/Hn4fn899vThJx+/Tj+mt7w52yXJafJKLi/5wfqROP/J1/P+P3uMOBrHvH2Br+OV0luxFeJZR1fxMcBX7zEvI6v4kb/S5IY1vFNXBjxRRK5r3fiR4PqJBGHvJfgR4MooRKDcGVgQW7EIIkrg0G741KWNJ7QojQlBipFRwOVRrJsd4hjWbQsjaT5xh2iJGZgMQGXvDiWuIonVHtC7hAcnlCtlEgeQpIy1raVhiOZnoqvjcWXaXHH2IM4G7heLLcNGraPJlpLKUkaXcqtF8ttgyZt7IccpZLE5YwnJGMAUnzqe7vMBkGURElVdDSIRQK5tFGKjomLQTxJXFEkAeOpkAgrOcx0CFIILRlH6NiiVr+Z3KHapccTrKUKCWttEsZampiKnGD9hcwniQSphd7Ac+31F9zGZwkjZ/ju4RoeQuSkkBwYZfkK+EgIw/AV8Y75U0QL4h3BW/gS4Gl8GsbfWJ7jNQK+koIwfEsQf9b5Ex5qmt+3SUF8ZvFsnRbmrhTH/K89/Rc8m+SWL/A/UqVjeJjLd/AmddB/NpWtnmsEvGfxtFlRIZ7K+8tnwDvujwdG6Rdawyesf6YRLopgUc/MH2O4q35h/V5Qat7tR7ivu1dvDfkn8vpPyCeF40F/GB+S/Ho33+9iUO8cgAXE9M2n8drrcVYroiygqQuH2X/X1fnahFGIUOgcszbzKkxVlUB62KZqHk8I3KUapEGMUm+721KiXrGo8RhpG9tn0tjGpgqZlNAmeUxDtDNJXZhE9GMeTBUyZZArupR5lEwiwtZlqjCT0khFCuhYUyPMYJ4ts4HSbjOJWMbSKKYBmbSOXfEtNkcm3k3tw7y3YvFsn9A+32cDK0e2T6S+biwWwchWnNAZbrF1ZZK4ieJGl6zJmSjyBcX7JAMYi3mcCgteW9ngQbZMQoziYSWyQcQWx6uxYEK4sPUDKaMW+v6Mwt3WTKbrEm431Usm74+43BS+b12Rasm0TD1yqjUOa36PMlyrVDLHXR9iiy9MHA9TUF2n2DV8QHyieJCByuvT4Rc126gZ13n03/CBvN9jvRkdN1IPob9tgS+khQNO5QlP8ht7NS7wTIYklKV2XxbPhP1ieKa7cqfxBV4Ji+arL5RcZ37+i+k9vP24fJ592e3356+7y//j51x7dP4UHB//AQ==);lineShape=1;" vertex="1" parent="1">
                    <mxGeometry x="1018.9615904279603" y="364.46256762022585" width="73.58660642665654" height="97.90542105029408" as="geometry"/>
                </mxCell>
                <mxCell id="46" value="" style="edgeStyle=none;curved=1;rounded=0;orthogonalLoop=1;jettySize=auto;html=1;endArrow=open;startSize=14;endSize=14;sourcePerimeterSpacing=8;targetPerimeterSpacing=8;" edge="1" parent="1" source="41" target="45">
                    <mxGeometry relative="1" as="geometry"/>
                </mxCell>
                <mxCell id="41" value="what if we just ran random forest ?&amp;nbsp;" style="rounded=0;whiteSpace=wrap;html=1;" vertex="1" parent="1">
                    <mxGeometry x="200" y="500" width="800" height="60" as="geometry"/>
                </mxCell>
                <mxCell id="47" value="" style="edgeStyle=none;curved=1;rounded=0;orthogonalLoop=1;jettySize=auto;html=1;endArrow=open;startSize=14;endSize=14;sourcePerimeterSpacing=8;targetPerimeterSpacing=8;" edge="1" parent="1" source="45" target="10">
                    <mxGeometry relative="1" as="geometry"/>
                </mxCell>
                <mxCell id="45" value="good performance&amp;nbsp;" style="rounded=0;whiteSpace=wrap;html=1;" vertex="1" parent="1">
                    <mxGeometry x="200" y="610" width="800" height="60" as="geometry"/>
                </mxCell>
            </root>
        </mxGraphModel>
    </diagram>
</mxfile>